<?xml version="1.0" encoding="us-ascii" standalone="no"?><svg xmlns="http://www.w3.org/2000/svg" xmlns:xlink="http://www.w3.org/1999/xlink" contentStyleType="text/css" height="517px" preserveAspectRatio="none" style="width:439px;height:517px;background:#FFFFFF;" version="1.1" viewBox="0 0 439 517" width="439px" zoomAndPan="magnify"><defs/><g><!--cluster ApplicationSystem--><g id="cluster_ApplicationSystem"><rect fill="none" height="504" rx="2.5" ry="2.5" style="stroke:#181818;stroke-width:1.0;" width="320" x="113" y="7"/><text fill="#000000" font-family="sans-serif" font-size="14" font-weight="bold" lengthAdjust="spacing" textLength="126" x="210" y="22.2344">&#1047;&#1072;&#1103;&#1074;&#1082;&#1080; &#1085;&#1072; &#1086;&#1073;&#1091;&#1095;&#1077;&#1085;&#1080;&#1077;</text></g><g id="elem_CreateApplication"><ellipse cx="273.0456" cy="56.8091" fill="#F1F1F1" rx="69.5456" ry="16.3091" style="stroke:#181818;stroke-width:0.5;"/><text fill="#000000" font-family="sans-serif" font-size="14" lengthAdjust="spacing" textLength="98" x="224.0456" y="60.5513">&#1057;&#1086;&#1079;&#1076;&#1072;&#1090;&#1100; &#1079;&#1072;&#1103;&#1074;&#1082;&#1091;</text></g><g id="elem_ViewInfoApplication"><ellipse cx="273.065" cy="140.213" fill="#F1F1F1" rx="144.065" ry="31.213" style="stroke:#181818;stroke-width:0.5;"/><text fill="#000000" font-family="sans-serif" font-size="14" lengthAdjust="spacing" textLength="260" x="143.065" y="143.9552">&#1055;&#1088;&#1086;&#1089;&#1084;&#1086;&#1090;&#1088;&#1077;&#1090;&#1100; &#1080;&#1085;&#1092;&#1086;&#1088;&#1084;&#1072;&#1094;&#1080;&#1102; &#1086; &#1089;&#1074;&#1086;&#1077;&#1081; &#1079;&#1072;&#1103;&#1074;&#1082;&#1077;</text></g><g id="elem_ApproveApplication"><ellipse cx="272.9663" cy="222.8933" fill="#F1F1F1" rx="72.4663" ry="16.8933" style="stroke:#181818;stroke-width:0.5;"/><text fill="#000000" font-family="sans-serif" font-size="14" lengthAdjust="spacing" textLength="105" x="220.4663" y="226.6355">&#1054;&#1076;&#1086;&#1073;&#1088;&#1080;&#1090;&#1100; &#1079;&#1072;&#1103;&#1074;&#1082;&#1091;</text></g><g id="elem_RejectApplication"><ellipse cx="272.8668" cy="293.0734" fill="#F1F1F1" rx="75.8668" ry="17.5734" style="stroke:#181818;stroke-width:0.5;"/><text fill="#000000" font-family="sans-serif" font-size="14" lengthAdjust="spacing" textLength="113" x="216.3668" y="296.8155">&#1054;&#1090;&#1082;&#1083;&#1086;&#1085;&#1080;&#1090;&#1100; &#1079;&#1072;&#1103;&#1074;&#1082;&#1091;</text></g><g id="elem_SendForCorrection"><ellipse cx="272.8401" cy="371.768" fill="#F1F1F1" rx="116.8401" ry="25.768" style="stroke:#181818;stroke-width:0.5;"/><text fill="#000000" font-family="sans-serif" font-size="14" lengthAdjust="spacing" textLength="203" x="171.3401" y="375.5102">&#1054;&#1090;&#1087;&#1088;&#1072;&#1074;&#1080;&#1090;&#1100; &#1079;&#1072;&#1103;&#1074;&#1082;&#1091; &#1085;&#1072; &#1076;&#1086;&#1088;&#1072;&#1073;&#1086;&#1090;&#1082;&#1091;</text></g><g id="elem_ViewApllicationsList"><ellipse cx="273.065" cy="464.213" fill="#F1F1F1" rx="144.065" ry="31.213" style="stroke:#181818;stroke-width:0.5;"/><text fill="#000000" font-family="sans-serif" font-size="14" lengthAdjust="spacing" textLength="260" x="143.065" y="467.9552">&#1055;&#1088;&#1086;&#1089;&#1084;&#1086;&#1090;&#1088;&#1077;&#1090;&#1100; &#1089;&#1087;&#1080;&#1089;&#1086;&#1082; &#1087;&#1086;&#1089;&#1090;&#1091;&#1087;&#1080;&#1074;&#1096;&#1080;&#1093; &#1079;&#1072;&#1103;&#1074;&#1086;&#1082;</text></g><!--entity Participant--><g id="elem_Participant"><ellipse cx="37.5" cy="70" fill="#F1F1F1" rx="8" ry="8" style="stroke:#181818;stroke-width:0.5;"/><path d="M37.5,78 L37.5,105 M24.5,86 L50.5,86 M37.5,105 L24.5,120 M37.5,105 L50.5,120 " fill="none" style="stroke:#181818;stroke-width:0.5;"/><text fill="#000000" font-family="sans-serif" font-size="14" lengthAdjust="spacing" textLength="56" x="9.5" y="134.7344">&#1059;&#1095;&#1072;&#1089;&#1090;&#1085;&#1080;&#1082;</text></g><!--entity Employee--><g id="elem_Employee"><ellipse cx="37.5" cy="303" fill="#F1F1F1" rx="8" ry="8" style="stroke:#181818;stroke-width:0.5;"/><path d="M37.5,311 L37.5,338 M24.5,319 L50.5,319 M37.5,338 L24.5,353 M37.5,338 L50.5,353 " fill="none" style="stroke:#181818;stroke-width:0.5;"/><text fill="#000000" font-family="sans-serif" font-size="14" lengthAdjust="spacing" textLength="63" x="6" y="367.7344">&#1057;&#1086;&#1090;&#1088;&#1091;&#1076;&#1085;&#1080;&#1082;</text></g><!--link Participant to CreateApplication--><g id="link_Participant_CreateApplication"><path d="M65.74,94.1 C102.68,87.46 163.5646,76.5014 211.1346,67.9514 " fill="none" id="Participant-to-CreateApplication" style="stroke:#181818;stroke-width:1.0;"/><polygon fill="#181818" points="217.04,66.89,207.4743,64.5452,212.1189,67.7745,208.8895,72.419,217.04,66.89" style="stroke:#181818;stroke-width:1.0;"/></g><!--link Participant to ViewInfoApplication--><g id="link_Participant_ViewInfoApplication"><path d="M65.74,103.78 C89.44,107.94 119.5304,113.2326 154.8504,119.4326 " fill="none" id="Participant-to-ViewInfoApplication" style="stroke:#181818;stroke-width:1.0;"/><polygon fill="#181818" points="160.76,120.47,152.5871,114.9742,155.8353,119.6055,151.204,122.8537,160.76,120.47" style="stroke:#181818;stroke-width:1.0;"/></g><!--link Employee to ViewApllicationsList--><g id="link_Employee_ViewApllicationsList"><path d="M61.34,369.89 C72.68,385.85 87.67,403.39 105,415 C123.07,427.11 138.4925,434.3989 159.5125,441.3389 " fill="none" id="Employee-to-ViewApllicationsList" style="stroke:#181818;stroke-width:1.0;"/><polygon fill="#181818" points="165.21,443.22,157.9178,436.6,160.4621,441.6524,155.4097,444.1967,165.21,443.22" style="stroke:#181818;stroke-width:1.0;"/></g><!--link Employee to ApproveApplication--><g id="link_Employee_ApproveApplication"><path d="M64.53,294.2 C75.54,280.86 89.43,266.97 105,258 C134.65,240.92 165.6003,232.9788 197.1603,228.4688 " fill="none" id="Employee-to-ApproveApplication" style="stroke:#181818;stroke-width:1.0;"/><polygon fill="#181818" points="203.1,227.62,193.6246,224.9334,198.1503,228.3273,194.7564,232.853,203.1,227.62" style="stroke:#181818;stroke-width:1.0;"/></g><!--link Employee to RejectApplication--><g id="link_Employee_RejectApplication"><path d="M69.03,326.9 C104.88,320.91 159.3118,311.8177 204.9118,304.2077 " fill="none" id="Employee-to-RejectApplication" style="stroke:#181818;stroke-width:1.0;"/><polygon fill="#181818" points="210.83,303.22,201.2943,300.756,205.8982,304.043,202.6112,308.6469,210.83,303.22" style="stroke:#181818;stroke-width:1.0;"/></g><!--link Employee to SendForCorrection--><g id="link_Employee_SendForCorrection"><path d="M69.03,337.23 C97.21,342.06 134.6261,348.4671 174.0361,355.2171 " fill="none" id="Employee-to-SendForCorrection" style="stroke:#181818;stroke-width:1.0;"/><polygon fill="#181818" points="179.95,356.23,171.7544,350.768,175.0218,355.3859,170.4039,358.6532,179.95,356.23" style="stroke:#181818;stroke-width:1.0;"/></g><!--SRC=[XLBBIiD05DtFLmpTznU4KXG45sB1_P1EwqYQ2PDHAIAahQ-5wD9THVo1j3GOeqr_uSuVUPEcRMfIdDKmzznppfnxRTxHL4kgHFTCqxPGtD92EeGmIqj5Q_1X7Y0m0pE4EKGGroZpw35JMbZ2POvUuzuXCKFZcn7C2iZzdclBFkU4fCJCwTeSiQ_8-09JY26Y20ue930n8rGAizumwssuhYqibjffzJtDU_IQK3mN7hUOnvUQy8bw0Ie_KRpcj6QK4JGLPveNQCYczStuQ7W0FqlR42uf8fYRMtpoiH2OUuZCCvgZ29oYLWXV1PNSvgdWLuTEHrRhZD5U-ZaVgIfDOfkIbpjSZZ7s6BwHORwh_uIVOxAxsnSe7I2-t9v7Fyk-6y0aJM9Ds-9E-q2gfbIhZVWlEtnOeCe0pSOKhqcwDBWE-0XJyuYbkuryakz76bx3jLVUlIFXQN93y1HsZDRhUnN3_8ke6iHg_zQ0ajWMec8OM_Los5lbKcY_]--></g></svg>